<svg width="16" height="16" viewBox="0 0 16 16" fill="none" xmlns="http://www.w3.org/2000/svg">
<path d="M5.35018 12.0112C5.35018 11.8904 5.25193 11.7918 5.1311 11.7918H4.7832V12.2303H5.1311C5.25193 12.2303 5.35018 12.1321 5.35018 12.0112Z" fill="#EEEEEE"/>
<path d="M5.4783 13.0983H4.7832V13.5369H5.4783C5.59913 13.5369 5.69738 13.4386 5.69738 13.3178C5.69738 13.1969 5.59913 13.0983 5.4783 13.0983Z" fill="#EEEEEE"/>
<path d="M13.3547 9.32912H12.3798C12.6399 9.01629 12.8669 8.67568 13.0562 8.31216C15.0449 4.58703 12.1864 -0.0553995 7.99916 0.000499996C3.8126 -0.0553995 0.953051 4.58738 2.94217 8.31182C3.13105 8.67568 3.35846 9.01629 3.61852 9.32912H2.64358C1.83008 9.32912 1.16797 9.99123 1.16797 10.8047V14.5239C1.16797 15.3374 1.83008 15.9996 2.64358 15.9996H13.3547C14.1682 15.9996 14.8304 15.3374 14.8304 14.5239V10.8047C14.8304 9.99123 14.1682 9.32912 13.3547 9.32912ZM3.83726 3.25309C4.01259 3.41801 4.24591 3.51765 4.49937 3.52147L5.73506 3.54057H5.75068C5.80693 3.54057 5.86214 3.53536 5.9163 3.52633L6.51592 4.30094C6.47252 4.37351 6.43606 4.45128 6.40933 4.53426L6.0899 5.51719C6.06317 5.59913 6.04719 5.68211 6.03956 5.76509L5.15246 6.00674C5.1153 5.96438 5.07434 5.92446 5.0292 5.888L4.0671 5.112C3.82823 4.91931 3.52234 4.85299 3.2359 4.91549C3.33347 4.31726 3.54109 3.75583 3.8376 3.25239L3.83726 3.25309ZM12.7628 4.91618C12.4763 4.85369 12.1704 4.92 11.9316 5.1127L10.9695 5.88869C10.9243 5.92515 10.8834 5.96508 10.8462 6.00744L9.95912 5.76578C9.95148 5.6828 9.93516 5.59982 9.90877 5.51788L9.58935 4.53495C9.56226 4.45197 9.52616 4.37385 9.48276 4.30164L10.0824 3.52703C10.1365 3.53606 10.1917 3.54126 10.248 3.54126H10.2636L11.4993 3.52217C11.7528 3.51835 11.9861 3.4187 12.1614 3.25378C12.4579 3.75722 12.6656 4.31865 12.7631 4.91688L12.7628 4.91618ZM9.70462 11.7918C9.46505 11.7918 9.27061 11.5977 9.27061 11.3578C9.27061 11.3182 9.27582 11.28 9.28589 11.2436C9.28624 11.2419 9.28693 11.2398 9.28763 11.238C9.33971 11.0564 9.50671 10.9238 9.70462 10.9238H11.65C11.8896 10.9238 12.084 11.1182 12.084 11.3578C12.084 11.5974 11.8896 11.7918 11.65 11.7918H11.1115V13.9709C11.1115 14.2108 10.917 14.4049 10.6775 14.4049C10.4379 14.4049 10.2435 14.2108 10.2435 13.9709V11.7918H9.70462ZM9.04042 11.3578C9.04042 11.5977 8.84633 11.7918 8.60642 11.7918H7.75473V12.2303H8.37831C8.61822 12.2303 8.81231 12.4248 8.81231 12.6643C8.81231 12.9039 8.61822 13.0983 8.37831 13.0983H7.75473V13.5369H8.60642C8.84633 13.5369 9.04042 13.7313 9.04042 13.9709C9.04042 14.2104 8.84633 14.4049 8.60642 14.4049H7.32073C7.08116 14.4049 6.88673 14.2108 6.88673 13.9709V11.3578C6.88673 11.3325 6.88916 11.3078 6.89298 11.2835C6.89332 11.2832 6.89332 11.2825 6.89332 11.2821C6.92909 11.0787 7.10685 10.9238 7.32073 10.9238H8.60642C8.82515 10.9238 9.0057 11.0853 9.03591 11.2953V11.2967C9.03903 11.3168 9.04042 11.337 9.04042 11.3578ZM6.56452 13.3178C6.56452 13.917 6.07671 14.4049 5.47744 14.4049H4.34834C4.10877 14.4049 3.91433 14.2108 3.91433 13.9709V11.3578C3.91433 11.1182 4.10877 10.9238 4.34834 10.9238H5.13023C5.7295 10.9238 6.21732 11.4116 6.21732 12.0112C6.21732 12.1658 6.18503 12.3126 6.12636 12.4459C6.39197 12.6442 6.56452 12.9612 6.56452 13.3178ZM9.45949 9.32912L8.58073 8.69061C8.53351 8.65624 8.4842 8.62707 8.43316 8.60208V7.51568C8.51302 7.48235 8.5901 7.43964 8.66232 7.38687L9.49838 6.77927C9.57337 6.72476 9.64004 6.66261 9.69767 6.59421L10.6191 6.84524C10.6299 6.90113 10.6452 6.95634 10.666 7.01085L11.1066 8.16564C11.2163 8.45313 11.4483 8.66527 11.7285 8.75484C11.559 8.96108 11.3729 9.15308 11.1719 9.32877H9.4588L9.45949 9.32912ZM8.95154 0.962943C8.84529 1.18932 8.82654 1.45319 8.91161 1.70214L9.31193 2.87186C9.32964 2.92359 9.35117 2.97289 9.37651 3.01977L8.7828 3.78673C8.69669 3.7659 8.60746 3.75479 8.5158 3.75479H7.48218C7.39052 3.75479 7.30129 3.7659 7.21518 3.78639L6.62147 3.01942C6.64646 2.97255 6.66834 2.92324 6.68605 2.87151L7.08637 1.70179C7.17178 1.45284 7.15268 1.18897 7.04644 0.962249C7.35441 0.900447 7.67279 0.86781 7.99882 0.86781C8.32484 0.86781 8.64322 0.900447 8.95119 0.962249L8.95154 0.962943ZM4.26917 8.75519C4.54937 8.66561 4.7813 8.45347 4.89101 8.16599L5.33161 7.0112C5.35244 6.95669 5.36772 6.90113 5.37848 6.84558L6.29996 6.59456C6.35794 6.66295 6.42426 6.7251 6.49925 6.77961L7.33531 7.38722C7.40788 7.43999 7.48461 7.4827 7.56447 7.51603V8.60242C7.51343 8.62742 7.46412 8.65659 7.4169 8.69096L6.53814 9.32946H4.82504C4.62401 9.15378 4.43791 8.96178 4.26848 8.75554L4.26917 8.75519Z" fill="#EEEEEE"/>
</svg>
