<svg width="16" height="16" viewBox="0 0 16 16" fill="none" xmlns="http://www.w3.org/2000/svg">
<g clip-path="url(#clip0_60_3879)">
<path d="M15.9505 10.3598C15.8451 10.1027 15.5971 9.9473 15.3346 9.94697C15.3333 9.94697 15.332 9.94664 15.3306 9.94664C15.3263 9.94664 15.3226 9.9483 15.3183 9.94864C15.2669 9.94997 15.2156 9.95831 15.1646 9.97198C15.1455 9.97698 15.1275 9.98198 15.1092 9.98832C15.0999 9.99165 15.0902 9.99299 15.0805 9.99666C14.2439 10.3405 13.3552 10.5149 12.4385 10.5149C8.60469 10.5149 5.48549 7.39565 5.48549 3.56184C5.48549 2.64515 5.65956 1.75648 6.00369 0.919823C6.00869 0.908152 6.01036 0.895814 6.01436 0.883809C6.01936 0.869137 6.0237 0.854465 6.0277 0.839125C6.0427 0.784104 6.05204 0.728749 6.05271 0.673395C6.05271 0.671061 6.05371 0.668726 6.05371 0.666059C6.05371 0.665392 6.05337 0.664391 6.05337 0.663724C6.05337 0.623709 6.04871 0.58436 6.04137 0.545679C6.0397 0.537342 6.03837 0.529006 6.0367 0.520669C6.02803 0.482321 6.01703 0.444306 6.00169 0.408293C5.99569 0.394287 5.98735 0.382282 5.98068 0.368944C5.91099 0.22989 5.79561 0.112845 5.64022 0.0491541C5.45848 -0.0252079 5.26407 -0.0118694 5.10001 0.0664941C5.09834 0.067161 5.09634 0.0674945 5.09467 0.0684949C4.09795 0.47832 3.19827 1.07988 2.42064 1.85752C-0.806936 5.0891 -0.806936 10.3471 2.42097 13.5794C4.03693 15.1933 6.15908 16 8.28157 16C10.4041 16 12.5265 15.193 14.1428 13.579C14.9178 12.8037 15.5184 11.9071 15.9282 10.9137C15.9302 10.91 15.9308 10.9057 15.9325 10.9017C15.9515 10.862 15.9669 10.8206 15.9779 10.7776C15.9785 10.7743 15.9799 10.7713 15.9809 10.768C16.0125 10.6366 16.0059 10.4945 15.9505 10.3598ZM13.2005 12.636C10.4884 15.3441 6.07605 15.3441 3.36467 12.636C0.656295 9.92429 0.656294 5.51193 3.36434 2.80055C3.65378 2.5111 3.96657 2.256 4.29436 2.02625C4.20033 2.52911 4.15164 3.04164 4.15164 3.56218C4.15164 8.1316 7.86907 11.849 12.4385 11.849C12.9587 11.849 13.4716 11.8004 13.9744 11.7063C13.7443 12.0338 13.4899 12.3466 13.2005 12.636Z" fill="white"/>
</g>
<defs>
<clipPath id="clip0_60_3879">
<rect width="16" height="16" fill="white"/>
</clipPath>
</defs>
</svg>
