<svg width="14" height="16" viewBox="0 0 14 16" fill="none" xmlns="http://www.w3.org/2000/svg">
<path d="M12.3547 9.32912H11.3798C11.6399 9.01629 11.8669 8.67568 12.0562 8.31216C14.0449 4.58703 11.1864 -0.0553995 6.99916 0.000499996C2.8126 -0.0553995 -0.0469492 4.58738 1.94217 8.31182C2.13105 8.67568 2.35846 9.01629 2.61852 9.32912H1.64358C0.830082 9.32912 0.167969 9.99123 0.167969 10.8047V14.5239C0.167969 15.3374 0.830082 15.9996 1.64358 15.9996H12.3547C13.1682 15.9996 13.8304 15.3374 13.8304 14.5239V10.8047C13.8304 9.99123 13.1682 9.32912 12.3547 9.32912ZM2.83726 3.25309C3.01259 3.41801 3.24591 3.51765 3.49937 3.52147L4.73506 3.54057H4.75068C4.80693 3.54057 4.86214 3.53536 4.9163 3.52633L5.51592 4.30094C5.47252 4.37351 5.43606 4.45128 5.40933 4.53426L5.0899 5.51719C5.06317 5.59913 5.04719 5.68211 5.03956 5.76509L4.15246 6.00674C4.1153 5.96438 4.07434 5.92446 4.0292 5.888L3.0671 5.112C2.82823 4.91931 2.52234 4.85299 2.2359 4.91549C2.33347 4.31726 2.54109 3.75583 2.8376 3.25239L2.83726 3.25309ZM11.7628 4.91618C11.4763 4.85369 11.1704 4.92 10.9316 5.1127L9.96947 5.88869C9.92434 5.92515 9.88337 5.96508 9.84622 6.00744L8.95912 5.76578C8.95148 5.6828 8.93516 5.59982 8.90877 5.51788L8.58935 4.53495C8.56226 4.45197 8.52616 4.37385 8.48276 4.30164L9.08237 3.52703C9.13654 3.53606 9.19174 3.54126 9.24799 3.54126H9.26361L10.4993 3.52217C10.7528 3.51835 10.9861 3.4187 11.1614 3.25378C11.4579 3.75722 11.6656 4.31865 11.7631 4.91688L11.7628 4.91618ZM8.70462 11.7918C8.46505 11.7918 8.27061 11.5977 8.27061 11.3578C8.27061 11.3182 8.27582 11.28 8.28589 11.2436C8.28624 11.2419 8.28693 11.2398 8.28763 11.238C8.33971 11.0564 8.50671 10.9238 8.70462 10.9238H10.65C10.8896 10.9238 11.084 11.1182 11.084 11.3578C11.084 11.5974 10.8896 11.7918 10.65 11.7918H10.1115V13.9709C10.1115 14.2108 9.91705 14.4049 9.67748 14.4049C9.43791 14.4049 9.24347 14.2108 9.24347 13.9709V11.7918H8.70462ZM8.04042 11.3578C8.04042 11.5977 7.84633 11.7918 7.60642 11.7918H6.75473V12.2303H7.37831C7.61822 12.2303 7.81231 12.4248 7.81231 12.6643C7.81231 12.9039 7.61822 13.0983 7.37831 13.0983H6.75473V13.5369H7.60642C7.84633 13.5369 8.04042 13.7313 8.04042 13.9709C8.04042 14.2104 7.84633 14.4049 7.60642 14.4049H6.32073C6.08116 14.4049 5.88673 14.2108 5.88673 13.9709V11.3578C5.88673 11.3325 5.88916 11.3078 5.89298 11.2835C5.89332 11.2832 5.89332 11.2825 5.89332 11.2821C5.92909 11.0787 6.10685 10.9238 6.32073 10.9238H7.60642C7.82515 10.9238 8.0057 11.0853 8.03591 11.2953V11.2967C8.03903 11.3168 8.04042 11.337 8.04042 11.3578ZM5.56452 13.3178C5.56452 13.917 5.07671 14.4049 4.47744 14.4049H3.34834C3.10877 14.4049 2.91433 14.2108 2.91433 13.9709V11.3578C2.91433 11.1182 3.10877 10.9238 3.34834 10.9238H4.13023C4.7295 10.9238 5.21732 11.4116 5.21732 12.0112C5.21732 12.1658 5.18503 12.3126 5.12636 12.4459C5.39197 12.6442 5.56452 12.9612 5.56452 13.3178ZM8.45949 9.32912L7.58073 8.69061C7.53351 8.65624 7.4842 8.62707 7.43316 8.60208V7.51568C7.51302 7.48235 7.5901 7.43964 7.66232 7.38687L8.49838 6.77927C8.57337 6.72476 8.64004 6.66261 8.69767 6.59421L9.61915 6.84524C9.62991 6.90113 9.64519 6.95634 9.66602 7.01085L10.1066 8.16564C10.2163 8.45313 10.4483 8.66527 10.7285 8.75484C10.559 8.96108 10.3729 9.15308 10.1719 9.32877H8.4588L8.45949 9.32912ZM7.95154 0.962943C7.84529 1.18932 7.82654 1.45319 7.91161 1.70214L8.31193 2.87186C8.32964 2.92359 8.35117 2.97289 8.37651 3.01977L7.7828 3.78673C7.69669 3.7659 7.60746 3.75479 7.5158 3.75479H6.48218C6.39052 3.75479 6.30129 3.7659 6.21518 3.78639L5.62147 3.01942C5.64646 2.97255 5.66834 2.92324 5.68605 2.87151L6.08637 1.70179C6.17178 1.45284 6.15268 1.18897 6.04644 0.962249C6.35441 0.900447 6.67279 0.86781 6.99882 0.86781C7.32484 0.86781 7.64322 0.900447 7.95119 0.962249L7.95154 0.962943ZM3.26917 8.75519C3.54937 8.66561 3.7813 8.45347 3.89101 8.16599L4.33161 7.0112C4.35244 6.95669 4.36772 6.90113 4.37848 6.84558L5.29996 6.59456C5.35794 6.66295 5.42426 6.7251 5.49925 6.77961L6.33531 7.38722C6.40788 7.43999 6.48461 7.4827 6.56447 7.51603V8.60242C6.51343 8.62742 6.46412 8.65659 6.4169 8.69096L5.53814 9.32946H3.82504C3.62401 9.15378 3.43791 8.96178 3.26848 8.75554L3.26917 8.75519Z" fill="#EEEEEE"/>
</svg>
