<svg width="16" height="16" viewBox="0 0 16 16" fill="none" xmlns="http://www.w3.org/2000/svg">
<path d="M11.5938 5.8125C11.5938 3.82812 9.98438 2.21875 8 2.21875C6.01562 2.21875 4.40625 3.82812 4.40625 5.8125C4.40625 7.79688 6.01562 9.40625 8 9.40625C9.98438 9.40625 11.5938 7.79688 11.5938 5.8125ZM5.34375 5.8125C5.34375 4.34375 6.53125 3.15625 8 3.15625C9.46875 3.15625 10.6562 4.34375 10.6562 5.8125C10.6562 7.28125 9.46875 8.46875 8 8.46875C6.53125 8.46875 5.34375 7.28125 5.34375 5.8125Z" fill="white"/>
<path d="M1.98492 14.9062C2.06304 14.9531 2.14117 14.9688 2.21929 14.9688C2.37554 14.9688 2.54742 14.8906 2.62554 14.7344C3.71929 12.7969 5.78179 11.5938 8.00054 11.5938C10.2193 11.5938 12.2818 12.7969 13.3912 14.7344C13.5162 14.9531 13.813 15.0312 14.0318 14.9062C14.2505 14.7812 14.3287 14.4844 14.2037 14.2656C12.938 12.0469 10.563 10.6562 8.00054 10.6562C5.43804 10.6562 3.06304 12.0469 1.79742 14.2656C1.67242 14.4844 1.75054 14.7812 1.98492 14.9062Z" fill="white"/>
</svg>
