<svg width="16" height="16" viewBox="0 0 16 16" fill="none" xmlns="http://www.w3.org/2000/svg">
<g clip-path="url(#clip0_60_3871)">
<path d="M13.6406 2.35938C10.525 -0.756247 5.47187 -0.756247 2.35625 2.35938C-0.759375 5.475 -0.759375 10.5281 2.35625 13.6438C5.47187 16.7594 10.525 16.7594 13.6406 13.6438C16.7563 10.5281 16.7563 5.475 13.6406 2.35938ZM13.5531 4.78438H11.7625C11.5906 3.97813 11.35 3.23438 11.05 2.58438C11 2.47813 10.9531 2.37813 10.9 2.27813C12.0062 2.84063 12.9281 3.7125 13.5531 4.78438ZM14.4187 8C14.4187 8.55625 14.3469 9.1125 14.2031 9.65313H12.0063C12.0625 9.10313 12.0906 8.55313 12.0906 8C12.0906 7.44688 12.0625 6.89688 12.0063 6.34688H14.2C14.3438 6.8875 14.4156 7.44375 14.4187 8ZM1.58437 8C1.58437 7.44375 1.65625 6.8875 1.8 6.34688H3.99375C3.88438 7.44375 3.88438 8.55313 3.99375 9.65H1.8C1.65625 9.1125 1.58437 8.55625 1.58437 8ZM5.47188 8C5.47188 7.44688 5.50313 6.89688 5.5625 6.34688H10.4344C10.4969 6.89688 10.525 7.44688 10.525 8C10.525 8.55313 10.4937 9.10313 10.4344 9.65313H5.56563C5.50313 9.10313 5.47188 8.55313 5.47188 8ZM8 1.58438C8.54375 1.58438 9.15312 2.20313 9.62813 3.2375C9.85313 3.7375 10.0312 4.25313 10.1594 4.7875H5.84062C5.96875 4.25625 6.14687 3.7375 6.37187 3.2375C6.84687 2.20313 7.45625 1.58438 8 1.58438ZM5.1 2.27813C5.05 2.37813 5 2.48125 4.95 2.58438C4.65 3.2375 4.4125 3.98125 4.2375 4.78438H2.44688C3.07188 3.7125 3.99375 2.84063 5.1 2.27813ZM2.44688 11.2156H4.2375C4.40938 12.0219 4.65 12.7656 4.95 13.4188C5 13.525 5.04688 13.625 5.1 13.725C3.99375 13.1594 3.07188 12.2875 2.44688 11.2156ZM8 14.4156C7.45625 14.4156 6.84687 13.7969 6.37187 12.7625C6.14687 12.2625 5.96875 11.7438 5.84062 11.2125H10.1594C10.0312 11.7438 9.85313 12.2625 9.62813 12.7625C9.15312 13.7969 8.54375 14.4156 8 14.4156ZM10.9 13.7219C10.95 13.6219 11 13.5219 11.05 13.4156C11.35 12.7625 11.5875 12.0188 11.7625 11.2125H13.5531C12.9281 12.2875 12.0062 13.1594 10.9 13.7219Z" fill="#EEEEEE"/>
</g>
<defs>
<clipPath id="clip0_60_3871">
<rect width="16" height="16" fill="white"/>
</clipPath>
</defs>
</svg>
