<svg width="147" height="26" viewBox="0 0 147 26" fill="none" xmlns="http://www.w3.org/2000/svg">
<g clip-path="url(#clip0_205_3446)">
<path fill-rule="evenodd" clip-rule="evenodd" d="M14.9474 3.13961C14.9474 4.55401 16.0823 5.70451 17.4759 5.70451C18.8695 5.70451 20.0031 4.55401 20.0031 3.13961C20.0031 1.72521 18.8695 0.574707 17.4759 0.574707C16.0823 0.574707 14.9474 1.72521 14.9474 3.13961ZM44.9358 13.2211C44.9358 12.419 45.5728 11.7651 46.3528 11.7651H49.9278C50.7078 11.7651 51.3448 12.419 51.3448 13.2211V14.5796H44.9358V13.2211ZM40.0075 19.4871C40.0075 23.0777 42.8545 26.0001 46.3541 26.0001H55.0121L56.2042 20.9418H46.3541C45.5715 20.9418 44.9358 20.2879 44.9358 19.4858V18.7617H56.2731V13.7801C56.2731 10.1882 53.4261 7.26581 49.9265 7.26581H46.3541C42.8545 7.26581 40.0075 10.1882 40.0075 13.7801V19.4871ZM19.7834 26.0001H14.9474V7.71171H19.7834V26.0001ZM27.7706 26.0001L21.5423 7.71171H26.6019L30.5539 19.3181L34.5072 7.71171H39.5668L33.3398 26.0001H27.7706ZM94.835 13.7801C94.835 12.978 95.4707 12.3241 96.252 12.3241H99.8257C100.608 12.3241 101.243 12.978 101.243 13.7801V19.4871C101.243 20.2892 100.607 20.9418 99.8257 20.9418H96.252C95.4707 20.9418 94.835 20.2879 94.835 19.4858V13.7801ZM89.9054 19.4871C89.9054 23.0777 92.7524 26.0001 96.252 26.0001H99.8257C103.325 26.0001 106.172 23.0777 106.172 19.4871V13.7801C106.172 10.1882 103.325 7.26581 99.8257 7.26581H96.252C92.7524 7.26581 89.9054 10.1882 89.9054 13.7788V19.4871ZM81.1213 26.0001C77.6009 26.0001 74.7383 23.1128 74.7383 19.5638V13.9257C74.7383 10.3767 77.6009 7.48941 81.1213 7.48941H88.3675L87.1676 12.4866H81.1213C80.3348 12.4866 79.6939 13.1327 79.6939 13.9257V19.5638C79.6939 20.3568 80.3348 21.0016 81.1213 21.0016H88.3675L87.1676 26.0001H81.1213ZM108.151 13.9257V26.0001H113.03V13.9257C113.03 13.1327 113.659 12.4866 114.434 12.4866H118.182L119.361 7.48941H114.434C110.969 7.48941 108.151 10.3754 108.151 13.9257ZM126.368 11.7664C125.585 11.7664 124.949 12.419 124.949 13.2224V14.5796H131.358V13.2211C131.358 12.419 130.723 11.7651 129.941 11.7651L126.368 11.7664ZM126.368 26.0001C122.868 26.0001 120.021 23.0777 120.021 19.4871V13.7801C120.021 10.1882 122.868 7.26581 126.368 7.26581H129.94C133.44 7.26581 136.287 10.1882 136.287 13.7801V18.7617H124.949V19.4858C124.949 20.2879 125.586 20.9418 126.368 20.9418H136.144L134.952 26.0001H126.368ZM6.3401 26.0001C2.8431 26.0001 0 23.1167 0 19.5716V1.91371H4.9231V19.5716C4.9231 20.3646 5.5601 21.0081 6.3401 21.0081H12.9701L11.778 26.0001H6.3401ZM58.5715 21.0185L57.3729 26.0001H66.82C70.3378 26.0001 73.1991 23.1232 73.1991 19.5859V17.6515C73.1991 14.3105 70.6069 11.5025 67.2971 11.2555L64.1862 10.9903L63.6519 10.9448C63.2942 10.9133 62.9612 10.7491 62.7184 10.4845C62.4757 10.2198 62.3408 9.87392 62.3402 9.51481V8.32791C62.3402 7.53751 62.9798 6.89401 63.7663 6.89401H70.8383L72.0356 1.91371H63.7663C60.2472 1.91371 57.3859 4.79061 57.3859 8.32791V9.51481C57.3859 12.8428 59.9677 15.6508 63.2645 15.9108L65.8645 16.1318L66.9175 16.2215C67.6624 16.2722 68.2448 16.9001 68.2448 17.6515V19.5859C68.2455 19.9647 68.0958 20.3283 67.8287 20.5969C67.5616 20.8655 67.1988 21.0171 66.82 21.0185H58.5715ZM139.014 11.9497V8.09521H137.718V7.26711H141.236V8.09651H139.948V11.951L139.014 11.9497ZM144.271 10.4911H143.695L142.792 8.95191V11.9497H141.895V7.26581H142.792L143.996 9.33281L145.201 7.26581H146.072V11.9497H145.175V8.95191L144.271 10.4911Z" fill="#FDFDFD"/>
</g>
<defs>
<clipPath id="clip0_205_3446">
<rect width="146.9" height="26" fill="white"/>
</clipPath>
</defs>
</svg>
