<svg width="16" height="16" viewBox="0 0 16 16" fill="none" xmlns="http://www.w3.org/2000/svg">
<g id="timer-clock 1">
<g id="Group">
<g id="Group_2">
<path id="Vector" d="M4.80613 2.30915C4.53462 2.07495 4.18197 1.93262 3.79543 1.93262C2.93969 1.93262 2.24609 2.62653 2.24609 3.48211C2.24609 3.71411 2.2986 3.93364 2.39005 4.13121C3.05991 3.37158 3.8808 2.74795 4.80613 2.30915Z" fill="#575D68"/>
<path id="Vector_2" d="M8.00099 16C11.8263 16 14.9275 12.8988 14.9275 9.07364C14.9275 5.64796 12.4401 2.8053 9.17285 2.24801V1.96633V1.68423V0.949808H9.77368C9.9723 0.949808 10.1335 0.737301 10.1335 0.474904C10.1335 0.212664 9.9723 0 9.77368 0H6.22799C6.02911 0 5.86786 0.212664 5.86786 0.474904C5.86786 0.737301 6.02906 0.949808 6.22799 0.949808H6.82851V1.68396V1.96607V2.24775C6.24518 2.34732 5.68726 2.51953 5.16352 2.7552C4.21617 3.18121 3.38229 3.81312 2.71867 4.59507C1.69387 5.80261 1.07422 7.36515 1.07422 9.07338C1.07453 12.8988 4.17572 16 8.00099 16ZM3.92034 5.02569C4.31014 4.63275 4.75585 4.29567 5.24501 4.02762C6.06385 3.5785 7.00302 3.32207 8.00126 3.32207C11.1729 3.32207 13.7527 5.90224 13.7527 9.07364C13.7527 12.2452 11.1728 14.8253 8.00126 14.8253C4.8298 14.8253 2.24969 12.2452 2.24969 9.07364C2.24943 7.49633 2.88836 6.06585 3.92034 5.02569Z" fill="#575D68"/>
<path id="Vector_3" d="M4.52257 12.5512C4.74509 12.7737 4.98888 12.9751 5.25039 13.1517C5.38119 13.2399 5.51661 13.3224 5.6558 13.3978C6.35264 13.7764 7.15126 13.9916 7.99998 13.9916C8.1061 13.9916 8.21138 13.9881 8.31572 13.9813C8.83784 13.9485 9.33796 13.8339 9.80338 13.6502C9.98952 13.577 10.1702 13.4923 10.3444 13.3976C10.4839 13.3219 10.619 13.2399 10.7498 13.1515C11.0114 12.9745 11.2551 12.7738 11.4776 12.5509C12.3677 11.6609 12.918 10.4316 12.918 9.07343C12.918 7.71538 12.3677 6.48572 11.4776 5.59576C11.2551 5.37314 11.0114 5.17206 10.7498 4.99524C10.619 4.90688 10.4837 4.82471 10.3444 4.74898C10.1702 4.65428 9.98952 4.57017 9.80338 4.49649C9.33822 4.31307 8.83784 4.1983 8.31572 4.16534C8.21138 4.15852 8.1061 4.15527 7.99998 4.15527C7.151 4.15527 6.35264 4.37035 5.6558 4.74877C5.51629 4.82445 5.38119 4.90672 5.25039 4.99503C4.98867 5.17179 4.74482 5.37288 4.52257 5.59555C3.6325 6.48546 3.08203 7.7149 3.08203 9.07322C3.08229 10.4318 3.63277 11.6611 4.52257 12.5512ZM8.00024 5.16V8.84462L4.29607 10.2682C3.64037 7.71396 5.43339 5.16 8.00024 5.16Z" fill="#575D68"/>
</g>
</g>
</g>
</svg>
