<svg width="16" height="16" viewBox="0 0 16 16" fill="none" xmlns="http://www.w3.org/2000/svg">
<g id="journal 1" clip-path="url(#clip0_153_14945)">
<g id="Group">
<g id="Group_2">
<path id="Vector" d="M7.10112 2.16734C7.05625 2.12634 7.01044 2.08531 6.96303 2.04428C6.04028 1.24534 4.43559 0.292969 2.03125 0.292969C1.77237 0.292969 1.5625 0.502844 1.5625 0.761719V1.09691C3.90922 1.22525 5.85094 1.74069 7.10112 2.16734Z" fill="#575D68"/>
<path id="Vector_2" d="M10.292 1.70928C11.6104 1.36872 13.0008 1.16272 14.4381 1.09344V0.761719C14.4381 0.502844 14.2282 0.292969 13.9693 0.292969C11.565 0.292969 9.96034 1.24534 9.03759 2.04428C9.01294 2.06562 8.98881 2.08697 8.96484 2.10831C9.34591 1.97644 9.78912 1.83919 10.292 1.70928Z" fill="#575D68"/>
</g>
<path id="Vector_3" d="M15.5312 2.00488C11.4516 2.00488 8.77275 3.13685 8 3.51032V3.51941C7.21494 3.16898 4.31706 2.00488 0.46875 2.00488C0.209875 2.00488 0 2.21476 0 2.47363V13.6762C0 13.9351 0.209875 14.1449 0.46875 14.1449C4.66244 14.1449 7.74734 15.6369 7.79213 15.6588C7.85781 15.6913 7.92897 15.7074 7.99997 15.7074H8C8.01028 15.7074 8.02056 15.7071 8.03084 15.7064C8.03416 15.7062 8.03747 15.7057 8.04078 15.7054C8.04775 15.7049 8.05472 15.7042 8.06166 15.7033C8.06556 15.7028 8.06947 15.7021 8.07337 15.7014C8.07966 15.7004 8.08594 15.6994 8.09219 15.6982C8.09638 15.6973 8.10053 15.6963 8.10469 15.6954C8.11063 15.694 8.11653 15.6926 8.12241 15.691C8.12669 15.6899 8.13094 15.6886 8.13519 15.6873C8.14091 15.6856 8.14656 15.6838 8.15222 15.6819C8.1565 15.6804 8.16078 15.6788 8.16503 15.6772C8.17056 15.6752 8.17603 15.6729 8.1815 15.6707C8.18578 15.6689 8.19003 15.667 8.19428 15.6651C8.19966 15.6627 8.20494 15.6601 8.21025 15.6574C8.21441 15.6553 8.21856 15.6532 8.22269 15.651C8.22425 15.6502 8.22584 15.6494 8.22741 15.6486C8.2545 15.6335 10.99 14.1449 15.5312 14.1449C15.7901 14.1449 16 13.9351 16 13.6762V2.47363C16 2.21473 15.7901 2.00488 15.5312 2.00488ZM1.85947 4.43273C1.85947 4.30104 1.91484 4.17541 2.01209 4.0866C2.10931 3.99779 2.23925 3.95401 2.37059 3.96588C3.73178 4.08945 5.03644 4.34304 6.24825 4.71966C6.44428 4.7806 6.57788 4.96201 6.57788 5.16729V7.04229C6.57788 7.19129 6.50703 7.33138 6.38709 7.41976C6.30559 7.47979 6.20794 7.51104 6.10913 7.51104C6.0625 7.51104 6.01562 7.5041 5.97003 7.48991C4.82103 7.13282 3.5815 6.89213 2.28584 6.77451C2.04438 6.7526 1.85947 6.55013 1.85947 6.3077V4.43273ZM6.55678 12.8064C6.49434 13.0073 6.30916 13.1362 6.10928 13.1362C6.06319 13.1362 6.01634 13.1293 5.97003 13.1149C4.82103 12.7578 3.5815 12.5171 2.28584 12.3995C2.02803 12.3761 1.83797 12.1481 1.86137 11.8903C1.88478 11.6325 2.11294 11.4424 2.37056 11.4659C3.73175 11.5894 5.03641 11.843 6.24822 12.2196C6.4955 12.2965 6.63363 12.5592 6.55678 12.8064ZM6.55678 10.9314C6.49434 11.1323 6.30916 11.2612 6.10928 11.2612C6.06319 11.2612 6.01634 11.2543 5.97003 11.2399C4.82103 10.8828 3.5815 10.6421 2.28584 10.5245C2.02803 10.5011 1.83797 10.2731 1.86137 10.0153C1.88478 9.75748 2.11294 9.56742 2.37056 9.59085C3.73175 9.71442 5.03641 9.96801 6.24822 10.3446C6.4955 10.4215 6.63363 10.6842 6.55678 10.9314ZM6.55678 9.05642C6.49434 9.25732 6.30916 9.38617 6.10928 9.38617C6.06319 9.38617 6.01634 9.37932 5.97003 9.36491C4.82103 9.00782 3.5815 8.76713 2.28584 8.64951C2.02803 8.6261 1.83797 8.39813 1.86137 8.14032C1.88478 7.88248 2.11294 7.69223 2.37056 7.71585C3.73175 7.83942 5.03641 8.09301 6.24822 8.46963C6.4955 8.54651 6.63363 8.8092 6.55678 9.05642ZM13.6985 12.3996C12.4029 12.5172 11.1634 12.7579 10.0143 13.115C9.96803 13.1294 9.92116 13.1362 9.87506 13.1362C9.67519 13.1362 9.49003 13.0074 9.42759 12.8065C9.35078 12.5593 9.48888 12.2966 9.73612 12.2197C10.948 11.8431 12.2526 11.5895 13.6138 11.4659C13.8714 11.4425 14.0996 11.6326 14.123 11.8904C14.1464 12.1482 13.9564 12.3762 13.6985 12.3996ZM13.6985 10.5246C12.4029 10.6422 11.1634 10.8829 10.0143 11.24C9.96803 11.2544 9.92116 11.2612 9.87506 11.2612C9.67519 11.2612 9.49003 11.1324 9.42759 10.9315C9.35078 10.6843 9.48888 10.4216 9.73612 10.3447C10.948 9.9681 12.2526 9.71451 13.6138 9.59095C13.8714 9.56741 14.0996 9.75757 14.123 10.0154C14.1464 10.2732 13.9564 10.5012 13.6985 10.5246ZM13.6985 8.64957C12.4029 8.7672 11.1634 9.00788 10.0143 9.36498C9.96803 9.37935 9.92116 9.38623 9.87506 9.38623C9.67519 9.38623 9.49003 9.25738 9.42759 9.05648C9.35078 8.80926 9.48888 8.54657 9.73612 8.46973C10.948 8.0931 12.2526 7.83951 13.6138 7.71595C13.8714 7.69254 14.0996 7.88257 14.123 8.14042C14.1464 8.39817 13.9564 8.62616 13.6985 8.64957ZM13.6985 6.77454C12.4029 6.89216 11.1634 7.13285 10.0143 7.48995C9.96803 7.50432 9.92116 7.5112 9.87506 7.5112C9.67519 7.5112 9.49003 7.38235 9.42759 7.18145C9.35078 6.93423 9.48888 6.67154 9.73612 6.5947C10.948 6.21807 12.2526 5.96448 13.6138 5.84091C13.8714 5.81735 14.0996 6.00751 14.123 6.26538C14.1464 6.52316 13.9564 6.75113 13.6985 6.77454ZM13.6985 4.89954C12.4029 5.01716 11.1634 5.25785 10.0143 5.61495C9.96803 5.62932 9.92116 5.6362 9.87506 5.6362C9.67519 5.6362 9.49003 5.50735 9.42759 5.30645C9.35078 5.05923 9.48888 4.79654 9.73612 4.7197C10.948 4.34307 12.2526 4.08948 13.6138 3.96591C13.8714 3.94248 14.0996 4.13254 14.123 4.39038C14.1464 4.64816 13.9564 4.87613 13.6985 4.89954Z" fill="#575D68"/>
</g>
</g>
<defs>
<clipPath id="clip0_153_14945">
<rect width="16" height="16" fill="white"/>
</clipPath>
</defs>
</svg>
