<svg width="16" height="16" viewBox="0 0 16 16" fill="none" xmlns="http://www.w3.org/2000/svg">
<g id="casino-chip 1" clip-path="url(#clip0_153_14915)">
<g id="06-king">
<g id="Glyph">
<path id="Vector" d="M8 0C6.41775 0 4.87104 0.469192 3.55544 1.34824C2.23985 2.22729 1.21447 3.47672 0.608967 4.93853C0.00346629 6.40034 -0.15496 8.00887 0.153721 9.56072C0.462403 11.1126 1.22433 12.538 2.34315 13.6569C3.46197 14.7757 4.88743 15.5376 6.43928 15.8463C7.99113 16.155 9.59966 15.9965 11.0615 15.391C12.5233 14.7855 13.7727 13.7602 14.6518 12.4446C15.5308 11.129 16 9.58225 16 8C15.9976 5.879 15.154 3.84555 13.6542 2.34578C12.1545 0.846002 10.121 0.00238211 8 0ZM8 14.6667C6.68146 14.6667 5.39253 14.2757 4.2962 13.5431C3.19987 12.8106 2.34539 11.7694 1.84081 10.5512C1.33622 9.33305 1.2042 7.99261 1.46144 6.6994C1.71867 5.40619 2.35361 4.21831 3.28596 3.28596C4.21831 2.35361 5.4062 1.71867 6.6994 1.46143C7.99261 1.2042 9.33305 1.33622 10.5512 1.8408C11.7694 2.34539 12.8106 3.19987 13.5431 4.2962C14.2757 5.39253 14.6667 6.68146 14.6667 8C14.6647 9.7675 13.9616 11.462 12.7118 12.7118C11.462 13.9616 9.7675 14.6647 8 14.6667Z" fill="#575D68"/>
<path id="Vector_2" d="M8 2C6.81331 2 5.65328 2.35189 4.66658 3.01118C3.67989 3.67047 2.91085 4.60754 2.45673 5.7039C2.0026 6.80026 1.88378 8.00666 2.11529 9.17054C2.3468 10.3344 2.91825 11.4035 3.75736 12.2426C4.59648 13.0818 5.66558 13.6532 6.82946 13.8847C7.99335 14.1162 9.19975 13.9974 10.2961 13.5433C11.3925 13.0892 12.3295 12.3201 12.9888 11.3334C13.6481 10.3467 14 9.18669 14 8C13.9982 6.40925 13.3655 4.88416 12.2407 3.75933C11.1158 2.6345 9.59075 2.00179 8 2ZM8 5.33333C8.13186 5.33333 8.26075 5.37243 8.37038 5.44569C8.48002 5.51894 8.56546 5.62306 8.61592 5.74488C8.66638 5.86669 8.67958 6.00074 8.65386 6.13006C8.62814 6.25938 8.56464 6.37817 8.47141 6.4714C8.37817 6.56464 8.25938 6.62813 8.13006 6.65386C8.00074 6.67958 7.8667 6.66638 7.74488 6.61592C7.62306 6.56546 7.51894 6.48001 7.44569 6.37038C7.37244 6.26075 7.33334 6.13185 7.33334 6C7.33334 5.82319 7.40357 5.65362 7.5286 5.5286C7.65362 5.40357 7.82319 5.33333 8 5.33333ZM4 6.66667C4 6.53481 4.0391 6.40592 4.11236 6.29629C4.18561 6.18665 4.28973 6.10121 4.41155 6.05075C4.53336 6.00029 4.66741 5.98709 4.79673 6.01281C4.92605 6.03853 5.04484 6.10203 5.13807 6.19526C5.23131 6.2885 5.2948 6.40729 5.32053 6.53661C5.34625 6.66593 5.33305 6.79997 5.28259 6.92179C5.23213 7.04361 5.14668 7.14773 5.03705 7.22098C4.92742 7.29423 4.79852 7.33333 4.66667 7.33333C4.48986 7.33333 4.32029 7.2631 4.19527 7.13807C4.07024 7.01305 4 6.84348 4 6.66667ZM10.6667 10.6667H5.33334L4.91667 7.58333L6.66667 8.66667L8 6.66667L9.33334 8.66667L11 7.58333L10.6667 10.6667ZM11.3333 7.33333C11.2015 7.33333 11.0726 7.29423 10.963 7.22098C10.8533 7.14773 10.7679 7.04361 10.7174 6.92179C10.667 6.79997 10.6538 6.66593 10.6795 6.53661C10.7052 6.40729 10.7687 6.2885 10.8619 6.19526C10.9552 6.10203 11.074 6.03853 11.2033 6.01281C11.3326 5.98709 11.4666 6.00029 11.5885 6.05075C11.7103 6.10121 11.8144 6.18665 11.8876 6.29629C11.9609 6.40592 12 6.53481 12 6.66667C12 6.84348 11.9298 7.01305 11.8047 7.13807C11.6797 7.2631 11.5101 7.33333 11.3333 7.33333Z" fill="#575D68"/>
</g>
</g>
</g>
<defs>
<clipPath id="clip0_153_14915">
<rect width="16" height="16" fill="white"/>
</clipPath>
</defs>
</svg>
