<svg width="16" height="16" viewBox="0 0 16 16" fill="none" xmlns="http://www.w3.org/2000/svg">
<g id="ball (1) 1" clip-path="url(#clip0_153_14922)">
<g id="Group">
<g id="Group_2">
<path id="Vector" d="M0.495347 15.5795C0.152764 15.8735 0.23828 16.0559 0.683884 15.9835C2.27629 15.7247 5.32451 15.1511 6.9199 14.3367C8.28229 13.6412 8.76558 14.5879 8.30642 15.3149C8.13636 15.5842 8.24985 15.7364 8.55694 15.652C10.3152 15.1686 14.0347 13.73 15.0404 10.0507C15.0863 9.88278 15.0086 9.65923 14.8696 9.55442L14.812 9.51095C14.6964 9.64879 14.5747 9.7822 14.4463 9.91058C13.8853 10.4716 13.2319 10.9121 12.5042 11.2199C11.7506 11.5387 10.9503 11.7003 10.1256 11.7003C9.30089 11.7003 8.50061 11.5387 7.74695 11.2199C7.01925 10.9121 6.36583 10.4716 5.80481 9.91058C5.2438 9.34959 4.80329 8.69616 4.49551 7.96844C4.17674 7.21479 4.0151 6.4145 4.0151 5.5898C4.0151 4.7651 4.17674 3.96482 4.49551 3.21115C4.65214 2.84082 4.84334 2.48985 5.06712 2.16038L5.01736 2.12284C4.86395 2.00713 4.62257 2.01852 4.48064 2.14804C3.67155 2.88651 1.29721 5.55638 0.737041 11.8503C0.709449 12.1603 0.89698 12.2714 1.15654 12.0997C1.50074 11.8719 1.96657 11.6918 2.31317 12.0414C2.82266 12.5554 1.74976 14.503 0.495347 15.5795Z" fill="#575D68"/>
<path id="Vector_2" d="M10.1257 11.181C11.8383 11.181 13.3707 10.4107 14.3962 9.19794C15.2195 8.22427 15.7162 6.96548 15.7162 5.5905C15.7162 2.50296 13.2132 0 10.1257 0C8.19162 0 6.48703 0.982201 5.48327 2.47495C4.88462 3.36522 4.53516 4.43705 4.53516 5.59052C4.53519 8.67805 7.03813 11.181 10.1257 11.181ZM15.1648 6.08337C15.1672 6.08552 15.1696 6.08746 15.1721 6.08944C15.1227 6.59803 14.9976 7.09223 14.798 7.56406C14.7333 7.71698 14.6615 7.86596 14.5828 8.01075C14.5793 8.01103 14.5759 8.01126 14.5724 8.01181L13.1119 8.22921L12.5432 8.31384L11.6074 7.09436L11.5827 7.06226L12.1927 5.18501L13.6634 4.70178L15.1648 6.08337ZM10.3857 1.94976L12.1621 0.954921C12.1651 0.95324 12.168 0.951368 12.1708 0.949479C12.7458 1.2031 13.2638 1.55776 13.7111 2.00506C13.7759 2.0699 13.8386 2.13637 13.8996 2.20414C13.8988 2.20698 13.898 2.20979 13.8975 2.2127L13.5056 4.20629L11.9848 4.70599L10.3856 3.54412L10.3857 1.94976ZM11.2256 7.45093L12.1411 8.64394L11.3505 10.5033C11.3491 10.5066 11.348 10.5098 11.3469 10.5131C10.9502 10.6113 10.5418 10.6611 10.1257 10.6611C9.70954 10.6611 9.30115 10.6113 8.90447 10.5131C8.90336 10.5098 8.90223 10.5065 8.90086 10.5033L8.11027 8.64394L9.02576 7.45093H11.2256ZM6.54027 2.00508C6.98759 1.55776 7.50559 1.20311 8.0806 0.949496C8.08344 0.951368 8.08628 0.953257 8.08926 0.954938L9.86572 1.94974V3.5441L8.35545 4.64137L8.26653 4.70597L6.74578 4.20627L6.56599 3.2916L6.35395 2.2127C6.35338 2.20981 6.35257 2.20698 6.35182 2.20414C6.41273 2.13639 6.47542 2.06992 6.54027 2.00508ZM5.6686 8.01074C5.58991 7.86595 5.51809 7.71696 5.4534 7.56404C5.25384 7.0922 5.12869 6.59803 5.07931 6.08942C5.08177 6.08745 5.08425 6.08552 5.08659 6.08336L6.58799 4.70174L8.05869 5.18497L8.66862 7.06223L7.70818 8.3138L5.679 8.01178C5.67553 8.01126 5.67206 8.01098 5.6686 8.01074Z" fill="#575D68"/>
</g>
</g>
</g>
<defs>
<clipPath id="clip0_153_14922">
<rect width="16" height="16" fill="white"/>
</clipPath>
</defs>
</svg>
