<svg width="16" height="16" viewBox="0 0 16 16" fill="none" xmlns="http://www.w3.org/2000/svg">
<g clip-path="url(#clip0_153_28226)">
<path d="M8 4C7.44791 4 6.93229 4.10937 6.45312 4.32812C5.96354 4.53646 5.53646 4.82031 5.17188 5.17969C4.80729 5.53906 4.52083 5.96354 4.3125 6.45312C4.10417 6.94271 4 7.45833 4 8C4 8.55209 4.10417 9.07291 4.3125 9.5625C4.52083 10.0417 4.80729 10.4635 5.17188 10.8281C5.53646 11.1927 5.96354 11.4792 6.45312 11.6875C6.93229 11.8958 7.44791 12 8 12C8.55209 12 9.06771 11.8958 9.54688 11.6875C10.0365 11.4792 10.4635 11.1927 10.8281 10.8281C11.1927 10.4635 11.4792 10.0417 11.6875 9.5625C11.8958 9.07291 12 8.55209 12 8C12 7.45833 11.8958 6.94271 11.6875 6.45312C11.4792 5.96354 11.1927 5.53906 10.8281 5.17969C10.4635 4.82031 10.0365 4.53646 9.54688 4.32812C9.06771 4.10937 8.55209 4 8 4ZM8 10.6719C7.27083 10.6719 6.64323 10.4115 6.11719 9.89062C5.59114 9.36979 5.32812 8.73959 5.32812 8C5.32812 7.27083 5.59114 6.64584 6.11719 6.125C6.64323 5.60416 7.27083 5.34375 8 5.34375C8.72917 5.34375 9.35677 5.60416 9.88281 6.125C10.4089 6.64584 10.6719 7.27083 10.6719 8C10.6719 8.73959 10.4089 9.36979 9.88281 9.89062C9.35677 10.4115 8.72917 10.6719 8 10.6719ZM8 2.67188C8.19792 2.67188 8.35938 2.61198 8.48438 2.49219C8.60938 2.3724 8.67188 2.20833 8.67188 2V0.671875C8.67188 0.473957 8.60938 0.312501 8.48438 0.1875C8.35938 0.0624994 8.19792 0 8 0C7.80208 0 7.64063 0.0624994 7.51562 0.1875C7.39062 0.312501 7.32812 0.473957 7.32812 0.671875V2C7.32812 2.20833 7.39062 2.3724 7.51562 2.49219C7.64063 2.61198 7.80208 2.67188 8 2.67188ZM8 13.3438C7.80208 13.3438 7.64063 13.4036 7.51562 13.5234C7.39062 13.6432 7.32812 13.8021 7.32812 14V15.3438C7.32812 15.5417 7.39062 15.7005 7.51562 15.8203C7.64063 15.9401 7.80208 16 8 16C8.19792 16 8.35938 15.9401 8.48438 15.8203C8.60938 15.7005 8.67188 15.5417 8.67188 15.3438V14C8.67188 13.8021 8.60938 13.6432 8.48438 13.5234C8.35938 13.4036 8.19792 13.3438 8 13.3438ZM3.26562 4.20312C3.32813 4.27604 3.40625 4.32812 3.5 4.35938C3.59375 4.39063 3.67187 4.40625 3.73438 4.40625C3.79688 4.40625 3.8724 4.39063 3.96094 4.35938C4.04948 4.32812 4.13021 4.27604 4.20312 4.20312C4.33854 4.06771 4.40625 3.91146 4.40625 3.73438C4.40625 3.55729 4.33854 3.40104 4.20312 3.26562L3.26562 2.34375C3.13021 2.20833 2.97396 2.14062 2.79688 2.14062C2.61979 2.14062 2.46354 2.20833 2.32812 2.34375C2.20312 2.46875 2.14062 2.6224 2.14062 2.80469C2.14062 2.98698 2.20312 3.14062 2.32812 3.26562L3.26562 4.20312ZM12.7344 11.8125C12.599 11.6771 12.4427 11.6094 12.2656 11.6094C12.0885 11.6094 11.9323 11.6771 11.7969 11.8125C11.6615 11.9375 11.5938 12.0885 11.5938 12.2656C11.5938 12.4427 11.6615 12.599 11.7969 12.7344L12.7344 13.6719C12.7969 13.7344 12.8724 13.7839 12.9609 13.8203C13.0495 13.8568 13.1302 13.875 13.2031 13.875C13.2656 13.875 13.3411 13.8568 13.4297 13.8203C13.5182 13.7839 13.599 13.7344 13.6719 13.6719C13.7969 13.5365 13.8594 13.3802 13.8594 13.2031C13.8594 13.026 13.7969 12.8698 13.6719 12.7344L12.7344 11.8125ZM2.67188 8C2.67188 7.80208 2.60938 7.64323 2.48438 7.52344C2.35937 7.40365 2.19792 7.34375 2 7.34375H0.671875C0.463541 7.34375 0.29948 7.40365 0.179688 7.52344C0.0598952 7.64323 0 7.80208 0 8C0 8.20833 0.0598952 8.3724 0.179688 8.49219C0.29948 8.61198 0.463541 8.67188 0.671875 8.67188H2C2.19792 8.67188 2.35937 8.61198 2.48438 8.49219C2.60938 8.3724 2.67188 8.20833 2.67188 8ZM15.3281 7.34375H14C13.8021 7.34375 13.6406 7.40365 13.5156 7.52344C13.3906 7.64323 13.3281 7.80208 13.3281 8C13.3281 8.20833 13.3906 8.3724 13.5156 8.49219C13.6406 8.61198 13.8021 8.67188 14 8.67188H15.3281C15.5365 8.67188 15.7005 8.61198 15.8203 8.49219C15.9401 8.3724 16 8.20833 16 8C16 7.80208 15.9401 7.64323 15.8203 7.52344C15.7005 7.40365 15.5365 7.34375 15.3281 7.34375ZM3.26562 11.8125L2.32812 12.7344C2.20312 12.8698 2.14062 13.026 2.14062 13.2031C2.14062 13.3802 2.20312 13.5365 2.32812 13.6719C2.40104 13.7344 2.48177 13.7839 2.57031 13.8203C2.65885 13.8568 2.73437 13.875 2.79688 13.875C2.86979 13.875 2.95052 13.8568 3.03906 13.8203C3.1276 13.7839 3.20312 13.7344 3.26562 13.6719L4.20312 12.7344C4.33854 12.599 4.40625 12.4427 4.40625 12.2656C4.40625 12.0885 4.33854 11.9375 4.20312 11.8125C4.06771 11.6771 3.91146 11.6094 3.73438 11.6094C3.55729 11.6094 3.40104 11.6771 3.26562 11.8125ZM12.2656 4.40625C12.3698 4.40625 12.4583 4.39063 12.5312 4.35938C12.6042 4.32812 12.6719 4.27604 12.7344 4.20312L13.6719 3.26562C13.7969 3.14062 13.8594 2.98698 13.8594 2.80469C13.8594 2.6224 13.7969 2.46875 13.6719 2.34375C13.5365 2.20833 13.3802 2.14062 13.2031 2.14062C13.026 2.14062 12.8698 2.20833 12.7344 2.34375L11.7969 3.26562C11.6615 3.40104 11.5938 3.55729 11.5938 3.73438C11.5938 3.91146 11.6615 4.06771 11.7969 4.20312C11.8281 4.27604 11.888 4.32812 11.9766 4.35938C12.0651 4.39063 12.1615 4.40625 12.2656 4.40625Z" fill="white"/>
</g>
<defs>
<clipPath id="clip0_153_28226">
<rect width="16" height="16" fill="white"/>
</clipPath>
</defs>
</svg>
